HIERARCHY
ROOT RootJoint
{
    OFFSET   0.000000   0.000000   0.000000
    CHANNELS 6 Xposition Yposition Zposition Xrotation Yrotation Zrotation
    JOINT pelvis_lowerback
    {
        OFFSET   0.000000   0.093605   0.000000
        CHANNELS 3 Xrotation Yrotation Zrotation
        JOINT lowerback_torso
        {
            OFFSET   0.000000   0.100000   0.000000
            CHANNELS 3 Xrotation Yrotation Zrotation
            JOINT torso_head
            {
                OFFSET   0.000000   0.282350   0.000000
                CHANNELS 3 Xrotation Yrotation Zrotation
                End Site
                {
                    OFFSET   0.000000   0.192650   0.000000
                }
            }
            JOINT rTorso_Clavicle
            {
                OFFSET  -0.001000   0.157500   0.000000
                CHANNELS 3 Xrotation Yrotation Zrotation
                JOINT rShoulder
                {
                    OFFSET  -0.117647   0.000000   0.000000
                    CHANNELS 3 Xrotation Yrotation Zrotation
                    JOINT rElbow
                    {
                        OFFSET  -0.245000   0.000000   0.000000
                        CHANNELS 3 Xrotation Yrotation Zrotation
                        JOINT rWrist
                        {
                            OFFSET  -0.240000   0.000000   0.000000
                            CHANNELS 3 Xrotation Yrotation Zrotation
                            End Site
                            {
                                OFFSET  -0.116353  -0.002500   0.000000
                            }
                        }
                    }
                }
            }
            JOINT lTorso_Clavicle
            {
                OFFSET   0.001000   0.157500   0.000000
                CHANNELS 3 Xrotation Yrotation Zrotation
                JOINT lShoulder
                {
                    OFFSET   0.117647   0.000000   0.000000
                    CHANNELS 3 Xrotation Yrotation Zrotation
                    JOINT lElbow
                    {
                        OFFSET   0.245000   0.000000   0.000000
                        CHANNELS 3 Xrotation Yrotation Zrotation
                        JOINT lWrist
                        {
                            OFFSET   0.240000   0.000000   0.000000
                            CHANNELS 3 Xrotation Yrotation Zrotation
                            End Site
                            {
                                OFFSET   0.116353  -0.002500   0.000000
                            }
                        }
                    }
                }
            }
        }
    }
    JOINT rHip
    {
        OFFSET  -0.100000  -0.051395   0.000000
        CHANNELS 3 Xrotation Yrotation Zrotation
        JOINT rKnee
        {
            OFFSET   0.000000  -0.410000   0.000000
            CHANNELS 3 Xrotation Yrotation Zrotation
            JOINT rAnkle
            {
                OFFSET   0.000000  -0.390000   0.000000
                CHANNELS 3 Xrotation Yrotation Zrotation
                JOINT rToeJoint
                {
                    OFFSET   0.000000  -0.050000   0.130000
                    CHANNELS 3 Xrotation Yrotation Zrotation
                    End Site
                    {
                        OFFSET  -0.010000   0.002000   0.060000
                    }
                }
            }
        }
    }
    JOINT lHip
    {
        OFFSET   0.100000  -0.051395   0.000000
        CHANNELS 3 Xrotation Yrotation Zrotation
        JOINT lKnee
        {
            OFFSET   0.000000  -0.410000   0.000000
            CHANNELS 3 Xrotation Yrotation Zrotation
            JOINT lAnkle
            {
                OFFSET   0.000000  -0.390000   0.000000
                CHANNELS 3 Xrotation Yrotation Zrotation
                JOINT lToeJoint
                {
                    OFFSET   0.000000  -0.050000   0.130000
                    CHANNELS 3 Xrotation Yrotation Zrotation
                    End Site
                    {
                        OFFSET   0.010000   0.002000   0.060000
                    }
                }
            }
        }
    }
}
MOTION
Frames: 15
Frame Time:   0.008333
 -2.356584   0.808059   4.445015   5.133524  -9.669862   2.705029  15.814252   1.272496   4.397881  10.751014   0.473806   5.738929  -3.724665   0.642823  -4.745503  -4.501391  13.886839  12.683661 -27.327372  22.483043  41.542950 -172.563371  89.906969 172.545668   8.609455   5.593859 -47.508057  -3.539507 -25.102602  -9.160121 -31.225749 -36.813548 -46.256881   0.121083 -85.669984   0.107818  -7.168379   7.703747  25.609186 -48.263792  -7.124899 -12.374571  60.182075   0.001793  -0.004710 -12.551231 -20.328526  -2.171533  -6.476763  -0.000907  -0.000692 -38.366337   8.833856   6.649060  64.915341   0.001022  -0.003081 -23.087214   2.918282  -1.815765 -13.974022   0.001916   0.000659
 -2.351608   0.806098   4.442394   5.221553 -10.023747   2.872381  15.852916   1.424414   4.337537  11.144906   0.569062   5.766201  -3.922140   0.636560  -4.667605  -4.286094  13.948019  12.931099 -26.097395  22.300666  41.459510  -1.021785  89.099213   0.998377   8.406450   5.768137 -47.812183  -3.537667 -24.783464  -9.222245 -29.984314 -36.672124 -45.892586   0.105570 -85.754868   0.094522  -6.992790   7.785347  25.588451 -48.806946  -6.795512 -12.703816  60.304997   0.001536  -0.004249 -12.250244 -20.020575  -1.542356  -6.259533  -0.001572  -0.000847 -38.652962   9.202934   6.348116  65.134254   0.001188  -0.003212 -23.805580   2.905344  -1.379630 -12.780789   0.001654  -0.002794
 -2.346555   0.804350   4.439832   5.310900 -10.394315   3.040004  15.884483   1.574527   4.283932  11.530320   0.669634   5.793557  -4.126883   0.632873  -4.594521  -4.026721  13.986568  13.156818 -24.892996  22.087010  41.369075  -0.580120  88.102476   0.552383   8.168673   6.006235 -47.820102  -3.480516 -24.453851  -9.257576 -28.764687 -36.506333 -45.526033   0.089612 -85.806068   0.080513  -6.828847   7.870592  25.403441 -49.306332  -6.490282 -13.023060  60.337138   0.001249  -0.003532 -11.939844 -19.708601  -0.939471  -5.999936  -0.002257  -0.001076 -38.917728   9.579699   6.049241  65.302499   0.001226  -0.003162 -24.443710   2.888235  -0.966226 -11.699031   0.001538  -0.005263
 -2.341452   0.802707   4.437296   5.390428 -10.769815   3.198459  15.920801   1.719530   4.238258  11.908773   0.770872   5.825171  -4.321802   0.629519  -4.525011  -3.754735  14.008807  13.367584 -23.744269  21.869718  41.284795  -0.427168  87.155592   0.396719   7.897940   6.290420 -47.687351  -3.406338 -24.127128  -9.281315 -27.607349 -36.336148 -45.177407   0.076172 -85.851588   0.068674  -6.665134   7.958499  25.146563 -49.766797  -6.204252 -13.325674  60.311724   0.000980  -0.002721 -11.627424 -19.410618  -0.372667  -5.708669  -0.002878  -0.001346 -39.164338   9.943709   5.754429  65.445510   0.001204  -0.003048 -25.028163   2.865349  -0.579414 -10.697348   0.001559  -0.007080
 -2.336317   0.801108   4.434775   5.456120 -11.144750   3.345685  15.963609   1.857031   4.198816  12.276629   0.869207   5.859857  -4.502900   0.626119  -4.458692  -3.484056  14.023152  13.564933 -22.659546  21.658688  41.209961  -0.340894  86.265602   0.309105   7.594062   6.613011 -47.480406  -3.330756 -23.813093  -9.298711 -26.523002 -36.169566 -44.851668   0.065175 -85.895694   0.058981  -6.503113   8.045773  24.858750 -50.193586  -5.933907 -13.612273  60.248169   0.000743  -0.001915 -11.319493 -19.128761   0.158129  -5.389610  -0.003415  -0.001634 -39.396923  10.292248   5.465166  65.577631   0.001159  -0.002925 -25.572854   2.837810  -0.219291  -9.758705   0.001684  -0.008384
 -2.331160   0.799520   4.432269   5.505863 -11.516724   3.480934  16.011896   1.985898   4.164234  12.630357   0.962879   5.896658  -4.670105   0.622593  -4.395882  -3.226623  14.032970  13.749905 -21.645516  21.455741  41.144711  -0.280773  85.428863   0.248736   7.263527   6.962161 -47.245436  -3.254430 -23.515116  -9.310097 -25.507096 -36.011062 -44.548392   0.056523 -85.942100   0.051377  -6.334974   8.136685  24.519439 -50.590038  -5.677702 -13.884189  60.157929   0.000538  -0.001163 -11.019801 -18.863160   0.654426  -5.045521  -0.003867  -0.001927 -39.617653  10.625370   5.182492  65.707068   0.001113  -0.002822 -26.085940   2.806381   0.114871  -8.872592   0.001882  -0.009286
 -2.325996   0.797924   4.429770   5.536751 -11.881189   3.603089  16.062906   2.108237   4.132080  12.968269   1.053738   5.931251  -4.823855   0.618586  -4.334468  -2.966575  14.064011  13.912538 -20.675203  21.265491  41.083398  -0.239833  84.598835   0.207980   7.054241   6.768068 -46.049259  -3.193179 -23.254058  -9.317073 -24.574932 -35.902671 -44.281745   0.055928 -86.051914   0.051411  -6.054563   7.926732  23.825703 -50.956687  -5.434994 -14.143330  60.048757   0.000364  -0.000493 -10.730017 -18.613674   1.117973  -4.679944  -0.004231  -0.002206 -39.827024  10.943110   4.906949  65.838472   0.001075  -0.002747 -26.571570   2.771587   0.424401  -8.031601   0.002125  -0.009859
 -2.320773   0.796894   4.427452   5.616215 -12.303230   3.755001  15.948053   2.235868   4.057302  13.368862   1.117835   5.984207  -4.904311   0.691605  -4.225354  -2.784232  14.081453  14.064113 -19.564566  20.995950  41.067275  -0.214600  83.200533   0.178696   7.125431   6.776290 -44.576041  -3.203687 -23.002636  -9.338878 -23.300659 -35.691355 -43.865685  -0.008316 -85.539852  -0.010250  -5.481785   7.131568  22.995616 -51.279519  -5.195112 -14.406920  59.768708   0.000126   0.000878 -10.296176 -18.314829   1.864547  -4.394180  -0.004910  -0.002356 -39.940989  11.368968   4.624032  65.749435   0.000706  -0.001874 -27.116252   2.777995   0.834053  -7.128757   0.001743  -0.010008
 -2.315568   0.796143   4.425167   5.704764 -12.724348   3.897721  15.819634   2.350615   3.985966  13.757077   1.181471   6.046211  -4.995125   0.762251  -4.118667  -2.563422  14.063379  14.205557 -18.485066  20.699015  41.045576  -0.190433  81.840862   0.151986   7.005851   6.578357 -43.048968  -3.153186 -22.728620  -9.334471 -22.043926 -35.436664 -43.444399  -0.050989 -84.999159  -0.050863  -5.047236   6.624433  22.160724 -51.558464  -4.991763 -14.652139  59.388790  -0.000097   0.002437  -9.832819 -18.010405   2.575035  -4.097873  -0.005464  -0.002479 -40.026930  11.784126   4.345045  65.581085   0.000280  -0.000887 -27.611111   2.787284   1.224067  -6.303562   0.001521  -0.009872
 -2.310407   0.795509   4.422883   5.787404 -13.131848   4.029721  15.692871   2.454398   3.917316  14.130545   1.242238   6.110149  -5.083844   0.827858  -4.016668  -2.329102  14.017402  14.336732 -17.458161  20.398112  41.025523  -0.168058  80.560338   0.128659   6.820749   6.304020 -41.577716  -3.077993 -22.442207  -9.317489 -20.846372 -35.168365 -43.041917  -0.074537 -84.479610  -0.072971  -4.689164   6.258928  21.358483 -51.801632  -4.809100 -14.880727  58.957923  -0.000308   0.003854  -9.364583 -17.716291   3.240361  -3.787377  -0.005893  -0.002569 -40.100315  12.179080   4.070469  65.383842  -0.000106  -0.000002 -28.058347   2.793164   1.591904  -5.547731   0.001418  -0.009558
 -2.305310   0.794899   4.420590   5.856306 -13.519748   4.149767  15.571487   2.548258   3.850469  14.486562   1.298431   6.172195  -5.166645   0.888649  -3.919970  -2.094290  13.955219  14.457782 -16.490043  20.103566  41.008912  -0.147920  79.361368   0.108865   6.621988   6.005386 -40.182707  -2.995487 -22.155969  -9.294407 -19.720549 -34.899139 -42.664535  -0.085377 -83.989413  -0.082896  -4.371482   5.956580  20.596349 -52.015009  -4.640494 -15.095894  58.504907  -0.000509   0.004991  -8.904638 -17.435361   3.860803  -3.463118  -0.006207  -0.002616 -40.166773  12.553258   3.802010  65.182256  -0.000421   0.000701 -28.469433   2.795481   1.936833  -4.854980   0.001402  -0.009095
 -2.300290   0.794261   4.418282   5.907378 -13.884874   4.256844  15.455966   2.632924   3.784881  14.822741   1.349367   6.230501  -5.243084   0.944997  -3.828826  -1.865712  13.884940  14.569381 -15.581649  19.820780  40.996387  -0.129987  78.241116   0.092250   6.427685   5.702198 -38.861346  -2.913847 -21.877701  -9.268690 -18.669172 -34.635765 -42.314001  -0.088168 -83.530043  -0.085180  -4.078824   5.684401  19.873359 -52.202652  -4.482973 -15.300127  58.046542  -0.000696   0.005818  -8.460295 -17.168401   4.438184  -3.151360  -0.006305  -0.002577 -40.228993  12.907352   3.541088  64.989298  -0.000663   0.001208 -28.853495   2.794669   2.258954  -4.219965   0.001446  -0.008517
 -2.295355   0.793568   4.415955   5.938456 -14.225641   4.350281  15.345618   2.709138   3.720215  15.137597   1.394968   6.284195  -5.313576   0.997265  -3.743250  -1.646953  13.811703  14.672350 -14.731725  19.552555  40.988054  -0.114067  77.195550   0.078342   6.244713   5.403290 -37.607281  -2.836911 -21.611705  -9.242317 -17.690810 -34.382000 -41.990127  -0.085998 -83.100981  -0.082807  -3.804128   5.427596  19.186727 -52.367287  -4.334925 -15.495268  57.592649  -0.000867   0.006352  -8.035012 -16.915575   4.974870  -2.865378  -0.006189  -0.002457 -40.288230  13.242291   3.288556  64.811734  -0.000835   0.001536 -29.216574   2.791206   2.558966  -3.637869   0.001526  -0.007861
 -2.290555   0.793371   4.413793   6.008189 -14.616798   4.473378  15.183954   2.802142   3.614578  15.392604   1.376549   6.333529  -5.303667   1.124777  -3.644657  -1.536954  13.681271  14.746870 -13.814844  19.249559  41.096260  -0.098938  75.557569   0.061947   6.339370   5.433119 -36.222754  -2.839580 -21.286652  -9.221742 -16.378124 -34.058642 -41.623174  -0.117780 -81.830157  -0.112703  -3.270721   4.549575  18.486274 -52.404330  -4.259524 -15.676602  56.863290  -0.000933   0.008214  -7.774213 -16.622531   5.612856  -2.741610  -0.005674  -0.002149 -40.175389  13.640011   3.015989  64.330163  -0.001481   0.002737 -29.796315   2.807073   2.857288  -3.115643   0.001583  -0.007029
 -2.285835   0.793517   4.411537   6.114918 -15.018777   4.578692  15.024446   2.886715   3.523766  15.628557   1.357944   6.380885  -5.316059   1.246481  -3.551529  -1.407090  13.518115  14.795689 -12.934912  18.924308  41.177216  -0.083911  73.979993   0.047000   6.286284   5.254485 -34.852174  -2.773734 -20.938432  -9.179696 -15.080040 -33.682834 -41.250098  -0.134299 -80.557771  -0.127565  -2.895165   4.100420  17.788962 -52.467368  -4.193138 -15.807231  56.124454  -0.001006   0.009598  -7.634273 -16.337868   6.141528  -2.614746  -0.005202  -0.001868 -40.056119  14.013274   2.764607  63.738352  -0.002118   0.004053 -30.342476   2.829075   3.143014  -2.644805   0.001612  -0.006272
